<svg xmlns="http://www.w3.org/2000/svg" xmlns:xlink="http://www.w3.org/1999/xlink" width="107" height="21" viewBox="0 0 107 21">
    <defs>
        <path id="4lnjsetlwa" d="M0 0.031L19.553 0.031 19.553 19.524 0 19.524z"/>
        <path id="413d61jqcc" d="M0.023 0.031L3.176 0.031 3.176 11.547 0.023 11.547z"/>
    </defs>
    <g fill="none" fill-rule="evenodd">
        <g>
            <g>
                <g>
                    <g transform="translate(-10 -85) translate(0 70) translate(10 15) translate(0 .445)">
                        <mask id="ctqjmfpx4b" fill="#fff">
                            <use xlink:href="#4lnjsetlwa"/>
                        </mask>
                        <path fill="#00A858" d="M15.253.031H4.3C1.936.031 0 1.961 0 4.32v10.918c0 2.358 1.936 4.287 4.3 4.287h10.953c2.365 0 4.3-1.93 4.3-4.287V4.319c0-2.359-1.935-4.288-4.3-4.288" mask="url(#ctqjmfpx4b)"/>
                    </g>
                    <path fill="#FEFEFE" d="M8.71 12.967c-1.865-.46-1.728-.43-1.732-1.867-.002-.593.301-.698.841-.484.552.218 1.524.553 1.968.852.326.22.374.457.467.943.195 1.01.236.995-1.545.556m1.317 5.57l8.426.002v-.001c.165-.184.314-.382.446-.59l.015-.025c.026-.04.05-.082.074-.124.01-.016.02-.032.028-.049l.062-.115.032-.063c.018-.036.035-.073.052-.111l.033-.071.046-.11.03-.077c.015-.036.028-.072.04-.108l.03-.085.033-.105.026-.09.028-.105.022-.096.022-.103.019-.102.017-.1.014-.11.011-.097.01-.121.006-.088c.003-.069.005-.138.005-.208V14.64c-1.78.001-3.731.269-5.29-.633-1.106-.642-1.852-2.518-.92-2.77 1.15-.309 4.735-.156 6.21-.131V6.739c-1.485.016-8.4.187-8.796-.16-.522-.459 1.226-3.722 2.908-3.722l5.377-.114c-.182-.335-.406-.644-.666-.918-2.127.005-4.261.043-4.926.105-2.478.235-3.301 4.066-4.03 4.22-.172-.408.136-1.144-1.314-.846-.391.08-1.903.433-2.051.81-.495 1.26 1.076.973 1.745.974.506 0 .794.216.741.387-.052.172-1.61 1.222-2.13 1.768-.948.996-.935 5.484-.747 6.853.099.718.398 1.777 1.149 2.049.09.43-.118 1.55.12 1.824h2.966c.255-.242.074-1.041.127-1.431M25.926 15.199c-1.043-.968-1.596-2.31-1.66-4.024l-.024-.952.024-.953c.064-1.714.617-3.055 1.66-4.024 1.043-.968 2.44-1.452 4.192-1.452 1.258 0 2.32.222 3.188.667.868.444 1.513.988 1.935 1.63.422.644.649 1.259.68 1.846.016.158-.035.294-.155.405-.119.11-.258.166-.417.166h-2.126c-.175 0-.303-.035-.382-.107-.08-.071-.16-.202-.24-.393-.238-.603-.553-1.04-.943-1.31-.39-.27-.887-.404-1.492-.404-.812 0-1.445.254-1.9.762-.453.508-.696 1.286-.728 2.333l-.023.881.023.786c.096 2.063.972 3.095 2.628 3.095.62 0 1.122-.13 1.504-.393.383-.262.693-.702.932-1.321.063-.175.14-.302.227-.381.087-.08.219-.12.394-.12h2.126c.159 0 .298.057.417.168.12.11.171.246.156.404-.032.556-.255 1.155-.669 1.798-.414.643-1.05 1.194-1.91 1.655-.86.46-1.935.69-3.225.69-1.752 0-3.149-.484-4.192-1.452M44.436 13.46c.454-.523.697-1.293.729-2.309.015-.159.023-.468.023-.929 0-.46-.008-.77-.023-.928-.032-1.016-.28-1.79-.74-2.322-.463-.531-1.108-.797-1.935-.797-.845 0-1.497.266-1.959.797-.462.532-.708 1.306-.74 2.322l-.024.928.024.929c.032 1.016.278 1.786.74 2.31.462.523 1.114.785 1.959.785.843 0 1.492-.262 1.946-.785m-6.293 1.761c-1.02-.952-1.569-2.27-1.648-3.952l-.024-1.048.024-1.047c.08-1.667.636-2.98 1.672-3.94 1.035-.96 2.475-1.441 4.323-1.441 1.83 0 3.264.48 4.299 1.44 1.035.96 1.592 2.274 1.672 3.94.015.191.023.54.023 1.048 0 .509-.008.858-.023 1.048-.08 1.683-.63 3-1.648 3.952-1.02.953-2.46 1.429-4.323 1.429-1.88 0-3.328-.476-4.347-1.429M57.166 13.46c.454-.523.696-1.293.729-2.309.015-.159.023-.468.023-.929 0-.46-.008-.77-.023-.928-.033-1.016-.28-1.79-.74-2.322-.462-.531-1.107-.797-1.936-.797-.843 0-1.496.266-1.958.797-.462.532-.708 1.306-.74 2.322l-.024.928.024.929c.032 1.016.278 1.786.74 2.31.462.523 1.115.785 1.958.785.844 0 1.493-.262 1.947-.785m-6.293 1.761c-1.02-.952-1.569-2.27-1.648-3.952l-.024-1.048.024-1.047c.08-1.667.636-2.98 1.672-3.94 1.035-.96 2.475-1.441 4.322-1.441 1.832 0 3.265.48 4.3 1.44 1.035.96 1.592 2.274 1.671 3.94.016.191.025.54.025 1.048 0 .509-.009.858-.025 1.048-.079 1.683-.629 3-1.647 3.952-1.019.953-2.46 1.429-4.324 1.429-1.879 0-3.328-.476-4.346-1.429M62.623 16.246c-.111-.11-.168-.245-.168-.404V1.048c0-.175.057-.314.168-.417.111-.103.247-.155.406-.155h2.006c.175 0 .314.052.418.155.104.103.156.242.156.417v14.794c0 .159-.052.293-.156.404-.104.112-.243.167-.418.167H63.03c-.16 0-.295-.055-.406-.167" transform="translate(-10 -85) translate(0 70) translate(10 15)"/>
                    <g transform="translate(-10 -85) translate(0 70) translate(10 15) translate(67.353 .445)">
                        <mask id="8zgkpe74pd" fill="#fff">
                            <use xlink:href="#413d61jqcc"/>
                        </mask>
                        <path fill="#FEFEFE" d="M.19 11.38c-.11-.11-.167-.245-.167-.404V.603C.023.428.079.289.19.186.301.083.438.031.596.031h2.007c.174 0 .314.052.418.155.104.103.155.242.155.417v10.373c0 .159-.051.293-.155.404-.104.112-.244.167-.418.167H.596c-.158 0-.295-.055-.406-.167" mask="url(#8zgkpe74pd)"/>
                    </g>
                    <path fill="#00A858" d="M67.53 16.25c-.103-.102-.154-.233-.154-.392v-1.866c0-.159.051-.293.155-.405.103-.11.235-.167.393-.167h2.055c.16 0 .29.056.394.167.103.112.155.246.155.405v1.866c0 .159-.052.29-.155.392-.104.104-.235.155-.394.155h-2.055c-.158 0-.29-.051-.393-.155" transform="translate(-10 -85) translate(0 70) translate(10 15)"/>
                    <path fill="#FEFEFE" d="M83.64 13.89c.669-.683 1.004-1.675 1.004-2.977v-.667l-2.795.405c-1.145.159-2.014.429-2.603.81-.59.38-.884.857-.884 1.428 0 .651.266 1.151.8 1.5.534.35 1.166.524 1.9.524 1.05 0 1.91-.34 2.578-1.024m-5.218 2.286c-.661-.318-1.186-.75-1.577-1.298-.39-.547-.584-1.154-.584-1.821 0-1.048.43-1.905 1.289-2.571.86-.667 2.03-1.111 3.512-1.334l3.582-.5v-.69c0-1.635-.948-2.453-2.843-2.453-.732 0-1.322.147-1.767.44-.445.295-.772.64-.98 1.037-.062.158-.13.266-.201.321-.073.056-.172.083-.299.083h-.932c-.143 0-.267-.051-.37-.154-.104-.103-.155-.227-.155-.37 0-.365.17-.789.513-1.273.342-.484.872-.905 1.588-1.262.717-.357 1.592-.536 2.628-.536 1.783 0 3.06.413 3.833 1.238.772.825 1.158 1.857 1.158 3.095v7.738c0 .159-.051.29-.155.393-.104.104-.235.155-.394.155h-1.05c-.16 0-.288-.051-.384-.155-.095-.103-.142-.234-.142-.393v-1.047c-.351.524-.86.96-1.53 1.31-.667.348-1.527.523-2.578.523-.78 0-1.501-.159-2.162-.476M89.002 16.258c-.104-.103-.155-.234-.155-.393V4.58c0-.159.051-.29.155-.393.104-.103.235-.155.395-.155H90.4c.158 0 .286.052.381.155.096.103.144.234.144.393v.81c.86-1.064 2.022-1.596 3.487-1.596 1.751 0 2.993.73 3.726 2.19.382-.666.927-1.198 1.636-1.595.708-.397 1.5-.595 2.376-.595 1.306 0 2.373.445 3.2 1.333.829.89 1.243 2.175 1.243 3.857v6.881c0 .16-.052.29-.156.393-.103.103-.235.155-.393.155h-1.028c-.16 0-.29-.052-.393-.155-.105-.103-.156-.234-.156-.393V9.2c0-1.27-.262-2.179-.788-2.727-.526-.547-1.218-.821-2.078-.821-.764 0-1.421.282-1.97.845-.55.564-.825 1.465-.825 2.703v6.666c0 .16-.052.29-.154.393-.105.103-.235.155-.395.155h-1.05c-.16 0-.292-.052-.395-.155-.104-.103-.155-.234-.155-.393V9.2c0-1.254-.274-2.158-.824-2.715-.55-.555-1.23-.833-2.042-.833-.764 0-1.42.278-1.97.833-.55.557-.824 1.453-.824 2.69v6.691c0 .16-.053.29-.156.393-.104.103-.235.155-.394.155h-1.05c-.16 0-.291-.052-.395-.155M72.116 16.25c-.103-.102-.154-.233-.154-.392v-1.866c0-.159.05-.293.154-.405.104-.11.235-.167.395-.167h2.054c.159 0 .29.056.394.167.104.112.156.246.156.405v1.866c0 .159-.052.29-.156.392-.104.104-.235.155-.394.155h-2.054c-.16 0-.291-.051-.395-.155" transform="translate(-10 -85) translate(0 70) translate(10 15)"/>
                </g>
            </g>
        </g>
    </g>
</svg>
